<svg width="28" height="28" viewBox="0 0 28 28" fill="none" xmlns="http://www.w3.org/2000/svg">
<ellipse cx="14" cy="14" rx="14" ry="14" fill="black"/>
<path fill-rule="evenodd" clip-rule="evenodd" d="M14.6689 5.79616C14.2809 5.12593 13.6635 5.12593 13.2755 5.79616L6.22921 18.2044C5.84118 18.8834 6.15866 19.4214 6.93472 19.4214H10.4711C11.1854 19.3773 11.8292 18.9981 12.2172 18.3984L16.4768 11.017C16.7854 10.382 16.7854 9.63238 16.4768 8.99742L15.2068 6.76624L14.6689 5.79616ZM19.3521 13.9625C18.9641 13.2922 18.3379 13.2922 17.9499 13.9625L15.4894 18.2044C15.1102 18.8746 15.4277 19.4214 16.1949 19.4214H21.063C21.839 19.4214 22.1565 18.8746 21.7685 18.2044L19.3521 13.9625Z" fill="white"/>
</svg>
