<svg width="28" height="28" viewBox="0 0 28 28" fill="none" xmlns="http://www.w3.org/2000/svg">
<path d="M27.5811 17.3867C27.5811 17.3867 27.5812 17.3867 27.5812 17.3867C25.7113 24.8868 18.115 29.4511 10.614 27.5809C3.11623 25.7111 -1.44817 18.1142 0.422453 10.6148C2.29143 3.11387 9.88779 -1.45087 17.3864 0.418928C24.8868 2.28871 29.4509 9.88627 27.581 17.3866C27.581 17.3867 27.5811 17.3867 27.5811 17.3867L27.5811 17.3867C27.5811 17.3867 27.5811 17.3867 27.5811 17.3867Z" fill="black"/>
<path fill-rule="evenodd" clip-rule="evenodd" d="M20.1749 12.0051C20.4536 10.1421 19.0351 9.14057 17.0955 8.47248L17.7248 5.94875L16.1885 5.56595L15.576 8.02323C15.1721 7.9225 14.7573 7.82759 14.3451 7.7335L14.9621 5.26L13.4268 4.8772L12.7972 7.4001C12.463 7.32401 12.1347 7.2488 11.8162 7.16956L11.818 7.16162L9.69947 6.63258L9.2908 8.27341C9.2908 8.27341 10.4306 8.53468 10.4066 8.55076C11.0287 8.70603 11.1412 9.11785 11.1225 9.44426L10.4057 12.3194C10.4486 12.3303 10.5041 12.346 10.5655 12.3706L10.5208 12.3595C10.4829 12.35 10.4435 12.3401 10.4031 12.3305L9.39845 16.3581C9.32242 16.5471 9.12944 16.8307 8.6945 16.723C8.7099 16.7453 7.57791 16.4444 7.57791 16.4444L6.81519 18.2029L8.81439 18.7013C9.03331 18.7562 9.24965 18.8126 9.46379 18.8684C9.61345 18.9074 9.76204 18.9462 9.90969 18.9839L9.27397 21.5366L10.8085 21.9194L11.438 19.3938C11.8572 19.5076 12.2641 19.6126 12.6623 19.7115L12.0349 22.2252L13.5712 22.608L14.2069 20.0601C16.8265 20.5559 18.7963 20.356 19.6254 17.9865C20.2935 16.0788 19.5922 14.9785 18.214 14.2609C19.2178 14.0294 19.9739 13.3692 20.1755 12.0054L20.175 12.005L20.1749 12.0051ZM16.665 16.927C16.2294 18.6773 13.4897 17.9537 12.2363 17.6226C12.1235 17.5929 12.0228 17.5662 11.9368 17.5449L12.7804 14.1631C12.8852 14.1892 13.0132 14.2179 13.1582 14.2505L13.1582 14.2505C14.4548 14.5415 17.1113 15.1376 16.665 16.927H16.665ZM13.418 12.6809C14.4631 12.9598 16.7428 13.5682 17.1399 11.9774H17.14C17.5454 10.3504 15.3299 9.85992 14.2478 9.62035C14.1261 9.5934 14.0187 9.56963 13.931 9.54777L13.1662 12.6149C13.2384 12.6329 13.3231 12.6555 13.418 12.6809Z" fill="white"/>
</svg>
